<mxfile host="app.diagrams.net" modified="2021-10-15T06:25:46.200Z" agent="5.0 (Macintosh; Intel Mac OS X 10_14_6) AppleWebKit/537.36 (KHTML, like Gecko) Chrome/92.0.4515.159 Safari/537.36" etag="QT4SKReOFFScCi-Bkp-W" version="14.5.3" type="github">
  <diagram id="EzYjLRgtcVnqCXiU11zW" name="Page-1">
    <mxGraphModel dx="1815" dy="597" grid="1" gridSize="10" guides="1" tooltips="1" connect="1" arrows="1" fold="1" page="1" pageScale="1" pageWidth="827" pageHeight="1169" math="0" shadow="0">
      <root>
        <mxCell id="0" />
        <mxCell id="1" parent="0" />
        <mxCell id="lFeNxP_hwwrYCeleurn0-51" value="" style="rounded=1;whiteSpace=wrap;html=1;align=center;fillColor=#f5f5f5;strokeColor=#666666;fontColor=#333333;" vertex="1" parent="1">
          <mxGeometry x="-279.5" y="41.75" width="590" height="368.5" as="geometry" />
        </mxCell>
        <mxCell id="lFeNxP_hwwrYCeleurn0-15" value="" style="rounded=1;whiteSpace=wrap;html=1;align=center;fillColor=#f8cecc;strokeColor=#b85450;" vertex="1" parent="1">
          <mxGeometry x="-260" y="180" width="20" height="90" as="geometry" />
        </mxCell>
        <mxCell id="lFeNxP_hwwrYCeleurn0-16" value="" style="rounded=1;whiteSpace=wrap;html=1;align=center;fillColor=#dae8fc;strokeColor=#6c8ebf;" vertex="1" parent="1">
          <mxGeometry x="-230" y="180" width="20" height="90" as="geometry" />
        </mxCell>
        <mxCell id="lFeNxP_hwwrYCeleurn0-18" value="" style="rounded=1;whiteSpace=wrap;html=1;align=center;fillColor=#bac8d3;strokeColor=#23445d;" vertex="1" parent="1">
          <mxGeometry x="-95" y="70" width="245" height="90" as="geometry" />
        </mxCell>
        <mxCell id="lFeNxP_hwwrYCeleurn0-20" value="" style="endArrow=classic;html=1;entryX=0.5;entryY=1;entryDx=0;entryDy=0;" edge="1" parent="1" source="lFeNxP_hwwrYCeleurn0-27" target="lFeNxP_hwwrYCeleurn0-21">
          <mxGeometry width="50" height="50" relative="1" as="geometry">
            <mxPoint x="-64" y="70" as="sourcePoint" />
            <mxPoint x="-54" y="50" as="targetPoint" />
          </mxGeometry>
        </mxCell>
        <mxCell id="lFeNxP_hwwrYCeleurn0-21" value="&lt;font color=&quot;#ff0000&quot;&gt;MHSCA&lt;/font&gt;" style="rounded=1;whiteSpace=wrap;html=1;align=center;horizontal=0;rotation=-180;fillColor=#fff2cc;strokeColor=#d6b656;" vertex="1" parent="1">
          <mxGeometry x="-79" y="81" width="30" height="70" as="geometry" />
        </mxCell>
        <mxCell id="lFeNxP_hwwrYCeleurn0-22" value="" style="endArrow=classic;html=1;" edge="1" parent="1">
          <mxGeometry width="50" height="50" relative="1" as="geometry">
            <mxPoint x="-49" y="115.70999999999998" as="sourcePoint" />
            <mxPoint x="-19" y="115.70999999999998" as="targetPoint" />
          </mxGeometry>
        </mxCell>
        <mxCell id="lFeNxP_hwwrYCeleurn0-13" value="" style="endArrow=classic;html=1;exitX=0.995;exitY=0.514;exitDx=0;exitDy=0;exitPerimeter=0;entryX=1;entryY=0.5;entryDx=0;entryDy=0;" edge="1" parent="1" target="lFeNxP_hwwrYCeleurn0-21">
          <mxGeometry width="50" height="50" relative="1" as="geometry">
            <mxPoint x="-200.00000000000006" y="209.99999999999997" as="sourcePoint" />
            <mxPoint x="-100" y="140" as="targetPoint" />
            <Array as="points">
              <mxPoint x="-140" y="150" />
            </Array>
          </mxGeometry>
        </mxCell>
        <mxCell id="lFeNxP_hwwrYCeleurn0-27" value="Concated Feature" style="text;html=1;align=center;verticalAlign=middle;resizable=0;points=[];autosize=1;" vertex="1" parent="1">
          <mxGeometry x="-119" y="40" width="110" height="20" as="geometry" />
        </mxCell>
        <mxCell id="lFeNxP_hwwrYCeleurn0-28" value="Add &amp;amp; Norm" style="rounded=1;whiteSpace=wrap;html=1;align=center;horizontal=0;rotation=-180;" vertex="1" parent="1">
          <mxGeometry x="-18" y="80" width="30" height="70" as="geometry" />
        </mxCell>
        <mxCell id="lFeNxP_hwwrYCeleurn0-29" value="" style="endArrow=classic;html=1;" edge="1" parent="1">
          <mxGeometry width="50" height="50" relative="1" as="geometry">
            <mxPoint x="12" y="115.71000000000004" as="sourcePoint" />
            <mxPoint x="42" y="115.71000000000004" as="targetPoint" />
          </mxGeometry>
        </mxCell>
        <mxCell id="lFeNxP_hwwrYCeleurn0-30" value="MLP" style="rounded=1;whiteSpace=wrap;html=1;align=center;horizontal=0;rotation=-180;fillColor=#fff2cc;strokeColor=#d6b656;" vertex="1" parent="1">
          <mxGeometry x="43" y="80" width="30" height="70" as="geometry" />
        </mxCell>
        <mxCell id="lFeNxP_hwwrYCeleurn0-32" value="" style="endArrow=classic;html=1;" edge="1" parent="1">
          <mxGeometry width="50" height="50" relative="1" as="geometry">
            <mxPoint x="73" y="115.71000000000004" as="sourcePoint" />
            <mxPoint x="103" y="115.71000000000004" as="targetPoint" />
          </mxGeometry>
        </mxCell>
        <mxCell id="lFeNxP_hwwrYCeleurn0-33" value="Add &amp;amp; Norm" style="rounded=1;whiteSpace=wrap;html=1;align=center;horizontal=0;rotation=-180;" vertex="1" parent="1">
          <mxGeometry x="104" y="80" width="30" height="70" as="geometry" />
        </mxCell>
        <mxCell id="lFeNxP_hwwrYCeleurn0-34" value="" style="rounded=1;whiteSpace=wrap;html=1;align=center;fillColor=#bac8d3;strokeColor=#23445d;" vertex="1" parent="1">
          <mxGeometry x="-95" y="290" width="245" height="90" as="geometry" />
        </mxCell>
        <mxCell id="lFeNxP_hwwrYCeleurn0-35" value="&lt;font color=&quot;#ff0000&quot;&gt;MHFCA&lt;/font&gt;" style="rounded=1;whiteSpace=wrap;html=1;align=center;horizontal=0;rotation=-180;fillColor=#fff2cc;strokeColor=#d6b656;" vertex="1" parent="1">
          <mxGeometry x="-79" y="298" width="30" height="70" as="geometry" />
        </mxCell>
        <mxCell id="lFeNxP_hwwrYCeleurn0-36" value="" style="endArrow=classic;html=1;" edge="1" parent="1">
          <mxGeometry width="50" height="50" relative="1" as="geometry">
            <mxPoint x="-49" y="332.71000000000004" as="sourcePoint" />
            <mxPoint x="-19" y="332.71000000000004" as="targetPoint" />
          </mxGeometry>
        </mxCell>
        <mxCell id="lFeNxP_hwwrYCeleurn0-37" value="Add &amp;amp; Norm" style="rounded=1;whiteSpace=wrap;html=1;align=center;horizontal=0;rotation=-180;" vertex="1" parent="1">
          <mxGeometry x="-18" y="297" width="30" height="70" as="geometry" />
        </mxCell>
        <mxCell id="lFeNxP_hwwrYCeleurn0-38" value="" style="endArrow=classic;html=1;" edge="1" parent="1">
          <mxGeometry width="50" height="50" relative="1" as="geometry">
            <mxPoint x="12" y="332.71000000000004" as="sourcePoint" />
            <mxPoint x="42" y="332.71000000000004" as="targetPoint" />
          </mxGeometry>
        </mxCell>
        <mxCell id="lFeNxP_hwwrYCeleurn0-39" value="MLP" style="rounded=1;whiteSpace=wrap;html=1;align=center;horizontal=0;rotation=-180;fillColor=#fff2cc;strokeColor=#d6b656;" vertex="1" parent="1">
          <mxGeometry x="43" y="297" width="30" height="70" as="geometry" />
        </mxCell>
        <mxCell id="lFeNxP_hwwrYCeleurn0-40" value="" style="endArrow=classic;html=1;" edge="1" parent="1">
          <mxGeometry width="50" height="50" relative="1" as="geometry">
            <mxPoint x="73" y="332.71000000000004" as="sourcePoint" />
            <mxPoint x="103" y="332.71000000000004" as="targetPoint" />
          </mxGeometry>
        </mxCell>
        <mxCell id="lFeNxP_hwwrYCeleurn0-41" value="Add &amp;amp; Norm" style="rounded=1;whiteSpace=wrap;html=1;align=center;horizontal=0;rotation=-180;" vertex="1" parent="1">
          <mxGeometry x="104" y="297" width="30" height="70" as="geometry" />
        </mxCell>
        <mxCell id="lFeNxP_hwwrYCeleurn0-3" value="" style="endArrow=classic;html=1;exitX=0.995;exitY=0.514;exitDx=0;exitDy=0;exitPerimeter=0;entryX=0.952;entryY=0.402;entryDx=0;entryDy=0;entryPerimeter=0;" edge="1" parent="1" target="lFeNxP_hwwrYCeleurn0-35">
          <mxGeometry width="50" height="50" relative="1" as="geometry">
            <mxPoint x="-200.00000000000006" y="239.99999999999997" as="sourcePoint" />
            <mxPoint x="-100" y="310" as="targetPoint" />
            <Array as="points">
              <mxPoint x="-140" y="300" />
            </Array>
          </mxGeometry>
        </mxCell>
        <mxCell id="lFeNxP_hwwrYCeleurn0-53" value="" style="edgeStyle=orthogonalEdgeStyle;rounded=0;orthogonalLoop=1;jettySize=auto;html=1;" edge="1" parent="1" source="lFeNxP_hwwrYCeleurn0-42" target="lFeNxP_hwwrYCeleurn0-35">
          <mxGeometry relative="1" as="geometry" />
        </mxCell>
        <mxCell id="lFeNxP_hwwrYCeleurn0-42" value="Concated Feature" style="text;html=1;align=center;verticalAlign=middle;resizable=0;points=[];autosize=1;" vertex="1" parent="1">
          <mxGeometry x="-119" y="388.5" width="110" height="20" as="geometry" />
        </mxCell>
        <mxCell id="lFeNxP_hwwrYCeleurn0-43" value="" style="endArrow=classic;html=1;entryX=0.5;entryY=0;entryDx=0;entryDy=0;" edge="1" parent="1" target="lFeNxP_hwwrYCeleurn0-35">
          <mxGeometry width="50" height="50" relative="1" as="geometry">
            <mxPoint x="-64" y="383" as="sourcePoint" />
            <mxPoint x="42.43000000000001" y="417.5" as="targetPoint" />
          </mxGeometry>
        </mxCell>
        <mxCell id="lFeNxP_hwwrYCeleurn0-45" value="" style="endArrow=classic;html=1;" edge="1" parent="1">
          <mxGeometry width="50" height="50" relative="1" as="geometry">
            <mxPoint x="160" y="140" as="sourcePoint" />
            <mxPoint x="260" y="210" as="targetPoint" />
          </mxGeometry>
        </mxCell>
        <mxCell id="lFeNxP_hwwrYCeleurn0-46" value="" style="endArrow=classic;html=1;" edge="1" parent="1">
          <mxGeometry width="50" height="50" relative="1" as="geometry">
            <mxPoint x="160" y="320" as="sourcePoint" />
            <mxPoint x="260" y="230" as="targetPoint" />
          </mxGeometry>
        </mxCell>
        <mxCell id="lFeNxP_hwwrYCeleurn0-48" value="" style="rounded=1;whiteSpace=wrap;html=1;align=center;fillColor=#ffe6cc;strokeColor=#d79b00;" vertex="1" parent="1">
          <mxGeometry x="270" y="181" width="20" height="90" as="geometry" />
        </mxCell>
        <mxCell id="lFeNxP_hwwrYCeleurn0-50" value="" style="shape=image;verticalLabelPosition=bottom;labelBackgroundColor=#ffffff;verticalAlign=top;aspect=fixed;imageAspect=0;image=data:image/png,iVBORw0KGgoAAAANSUhEUgAAAFIAAABYCAYAAABmt6D9AAAKf0lEQVR4Ae2dBagVTRTHn93drRjYimILNpigYmGCLWIndouK9VBsFAtRERUTuxEVW7EVEQzsziP/ld03Mzubd+v7uAPP3b07O3vmt2dmzpwJEygePCGQ4Ekq8UQoDtIjJYiDjIP0iIBHycQ18v8E8tWrV7R3715KTEyksWPHUvfu3alx48ZUu3Ztql69OtWoUYPq1q1LrVq1on79+tG0adNo9erVdO7cOfr27ZtHKGJLJnCN/P37N125coWWLVumACtZsiQlJCS4/kuTJg3VqlWLhg8fTtu2baNnz57FRsTl04GBfP36Nc2bN4+KFSvmGppd4E2aNKHdu3fTr1+/XGJx/pjvIKF9vXv3pnTp0vkOUARdtGhRmjt3LuEj+h18Afnjxw/asmWLUq+JmbO6zpEjB1WoUIHKlSunA1+nTh0qUaKE44+SNm1a6tWrF12+fNk3np6DhLAAYQUM9/PkyUOtW7emOXPm0MmTJ+nTp09aRtGYiGl8/vxZuf/nzx+lLtyxYweNGjVK+WCAJcaXXffp04c+fPigvcerE89AQgunTp1KKVOmNM1Q7ty5aeLEiXT//n0CEKNgBlL2zPfv3+nYsWPUsWNHSxmKFClCR44ckSXj+jdPQF6/fp2qVKliCrBmzZq0adMm2+aKU5AsAbTckyZNUjReppXqbwMHDuRKAZuG0/OYQP78+ZNmz55NqVOnlkJMlSoV9ejRgy5cuOBULsVOVDOsHtWibTcxaOnmzZsVO1RNQzwWL16cTp06ZTdJw3iuQaKeqV+/vhQghK1cuTJdvXrV8MVWN2LRSDFtVCFIL1OmTFJ5kyVLpphm4nNOrl2BBET0NMSvi2vUkZMnTybUmbEEL0Gqcjx+/JgaNWoklRuyw1RyGxyDNIMIk+XSpUtuZeGe8wMkXoCe1dKlSyl9+vRSoG5hOgJpBnHkyJG2GxKOmMGFXyDV18FqQB9eVqrcwLQN0gyimxerGTI6+g0S7/348aNhFeU0T7ZAfv361bMXGoETfw8CpBXMhQsXimIZXtsCid6DV0XAUBLhRlAg8VojzUyRIoVt080S5JkzZwjmgQjSqeoLnCwvgwRpBrNs2bKEEmkVTEHCAJb5C6dMmWKVbsz3gwYJgaGZsh7a6NGjLfNjCnLw4ME6TYQHJgg/XxggQevmzZsEZzFbApMnT05nz541hWkIEg4ANjGcw6d49+5d0wS9uhkWSMiPakvMO0qmWRdVChKmDpyiYmIYUwkqhAkSJQ7jRWL+hwwZYph9KchZs2bpEmnQoIHSKzBMyeMbYYJEVlDyRK8+Gt2HDx9Kc6oDCY9OoUKFOJAZM2akR48eSRPw68ewQSJfixcv5jhAQ2EKyoIOJLzOokrDYRt0iAJI9MtLly7N8ciWLZu0rtSBRBFmQcKn+Pz586A5euKP9ELoJUuWcDzABh9ZDBzIGzdu6B7q0qWL+Ewg11HQSGQUDa/ox4SvVRwm4UAOGDBABxKzGcIIUQGJvA8aNEjH5fTp0xwWDeS7d+8oQ4YM3ANVq1bVkeee9vEiSiBv377NcUHxxiAbGzSQ69ev10Veu3YtGzfQ8yiBRMYxe0NsO758+aIx0UD279+fi4h6wU5nXUvJ45Oogdy+fTvHB1DZQTMNZKVKlbiI+AJhhqiBfPnyJccHIFkPmAISLRM65qzqYlw4zBA1kGCB6TIsozZt2miIFJBHjx7lIiDy/v37tUhhnEQRZLdu3ThOefPm1RpjBeTMmTO5CAD55s2bMPhp74wiSIw+shqJcwzxIiggRdKlSpXSMhTWSRRBYqhZBHngwIEkkOKgedOmTcPip703iiBRSkWQa9asSQJZpkwZLkLPnj21DIV1EkWQ6BaK0wenT5+eBDJLliwcSNiUt27dCvVvxIgRnEzQhIsXL4YqE5gULFiQkwusEBJAWVTX+LX9xQGdO3f+BxJu9Tg4++BEVh06dPgHEh5x8Wb82j7Y9u3bx4u2FwqjFW3gxJgMmyjsykOHDoX616lTJ04myLdr165QZQKTAgUKcHL17dv3n0biXxjgLEjM/A87RNX8EX226qwTpWcjTmFu0aJF2BwjM2bDgnj//j2ncFC+VatWKVEUkCjnrEZi5m3YIYoaee3aNY4TmGExKoICEnO+WZBwqcG1FmaIIkiZTHfu3EkCCZcZCxLnXi/ocfpRZEKbzb1xmr6b+FiGx3LCcj91NFHRSFlnfMaMGW7e5dkzUQSJuZIsSLYtUUAi96Ljgo3kGR0HCUUN5Nu3bzmIAMoqmwYSHh+Wdvbs2WNeK+OAmy5q1EDu2bOH4wNWbPWngUQzzoLEOVbkhxWiBhLjMywfsUHWQL548UK3prBevXphcYyUHfnkyRPd4KBY9WkgQUwccsAXgO0URoiSRmLDElYbca4OMahsOJDnz5/XPYBdTcIIUQGJSRIwc1iQmAaNKX9s4EDiRrVq1biHsGYvjBHFqIBct24dxwNAFy1axDJUznUgZXOA5s+fr3vQ7x+iABLGNiaSsdoIpwUmnIlBBxKqnCtXLu7hnDlzEhqjIEMUQG7cuJHjAKCY+igLOpCING7cOF0Cbdu21bpDsoS8/i1skNjOIWvWrDoOmIwrC1KQ2GILm3iwKo1z7EkRVAgTJIp08+bNdfnv2rWrYfalIBFbNikfE9GD2jIrTJAY9BeVKH/+/KaNriFIwMT8cTFBGKKqx8Pw83hwIyyQML7FOeNgsG/fPtNcmYKE2ZMvXz4dTGwQ53cIAyT24WjYsKEuv3CfWQVTkHgYHmBRK9HP3LBhg1XaMd0PGiQgiv1p5Ltw4cKEIQarYAkSCYieIbzAb5hBgjSCiHwePnzYiqFy3xZIfBHZpm9+wgwKpBnEMWPG2IKISLZAIiIMctFD7KdmBgHSDCJWwjppVG2DtIKJ/qfYkbf9OSUR/QYJW7lly5a6+h/K4RQixHcE0gwmBMA6Rq9W0foJcufOndIOh1uIrkBawcT0l5UrVzoqFkhTDH6AhDkn87kCYCwQIbtjjVQzjDqzfPny0qIBoTB9+unTp2p0x0evQcKgRu9EhSYehw0bFtPHdw0SZLADqWzBoyokZgKPHz/eFVAvQKKxOHHiBMHhosokHuHZ2rp1q+MPLT4QE0g1MazTke2BoQqNjYjatWtHx48ft/3VYwGJD7xixQrLLWphgHu1Ft0TkACKKS4YllDhGR1RHSxfvlzZY0f9ELKjG5D37t1T9iOXub9YeXAfvkYn5o1MRvY3z0CqiR48eFA3YZ3NhHoOLcVmRdieFZl68OABlzErkNitFGNMMLuw5BddOTVtsyPcY354sDwHCaDoCS1YsICw7apZpsR7cNNVrFhRaaiwUZN4H9OMMUSMwSdxkyMxrniNxg+D/F5qoao8OPoCUn0BDHQ4PZo1a6aDImbUj+vMmTMrxrU6Y0yVy4+jryBZgbGPztChQ0lc0+MHQPgF4OrDXmdBhcBAqhlC5qClEyZMUPa7FeevuwGL+hH1JOpL7DDtV/FV8yA7Bg5SFALrfLA7NMwV9r9ggYMEJhUmv2NDJ/xnGRgaVf8rFszdxqp+PxoOUUY716GDtCPkfyFOHKRHX+kvx5cA30AKQfAAAAAASUVORK5CYII=;" vertex="1" parent="1">
          <mxGeometry x="230" y="208.2" width="22" height="23.61" as="geometry" />
        </mxCell>
        <mxCell id="lFeNxP_hwwrYCeleurn0-54" value="" style="endArrow=classic;html=1;" edge="1" parent="1">
          <mxGeometry width="50" height="50" relative="1" as="geometry">
            <mxPoint x="-200" y="225" as="sourcePoint" />
            <mxPoint x="220" y="225" as="targetPoint" />
          </mxGeometry>
        </mxCell>
        <mxCell id="lFeNxP_hwwrYCeleurn0-55" value="" style="shape=cube;whiteSpace=wrap;html=1;boundedLbl=1;backgroundOutline=1;darkOpacity=0.05;darkOpacity2=0.1;align=center;fillColor=#e1d5e7;strokeColor=#9673a6;" vertex="1" parent="1">
          <mxGeometry x="10" y="170" width="32" height="94.5" as="geometry" />
        </mxCell>
        <mxCell id="lFeNxP_hwwrYCeleurn0-56" value="" style="shape=cube;whiteSpace=wrap;html=1;boundedLbl=1;backgroundOutline=1;darkOpacity=0.05;darkOpacity2=0.1;align=center;fillColor=#e1d5e7;strokeColor=#9673a6;" vertex="1" parent="1">
          <mxGeometry y="170" width="31" height="95.5" as="geometry" />
        </mxCell>
        <mxCell id="lFeNxP_hwwrYCeleurn0-57" value="Convolution Layer" style="text;html=1;align=center;verticalAlign=middle;resizable=0;points=[];autosize=1;" vertex="1" parent="1">
          <mxGeometry x="-29" y="264.5" width="110" height="20" as="geometry" />
        </mxCell>
      </root>
    </mxGraphModel>
  </diagram>
</mxfile>
